<svg width="1618" height="842" xmlns="http://www.w3.org/2000/svg" xmlns:xlink="http://www.w3.org/1999/xlink" xml:space="preserve" overflow="hidden"><g transform="translate(-1682 -409)"><rect x="1901" y="1050" width="1212" height="180" fill="#0092B5"/><text fill="#FFFFFF" font-family="Calibri,Calibri_MSFontService,sans-serif" font-weight="400" font-size="92" transform="matrix(1 0 0 1 2267.84 1171)">Environment</text><rect x="2248" y="418" width="519" height="149" fill="#0092B5"/><text fill="#FFFFFF" font-family="Calibri,Calibri_MSFontService,sans-serif" font-weight="400" font-size="92" transform="matrix(1 0 0 1 2398.01 523)">Agent</text><path d="M2767 485.125 2963.48 485.125 2963.48 1014.78 2949.73 1014.78 2949.73 492 2956.61 498.875 2767 498.875ZM2977.23 1007.91 2956.61 1049.16 2935.98 1007.91Z"/><path d="M2051.13 1049.16 2051.13 485.125 2234.16 485.125 2234.16 498.875 2058 498.875 2064.88 492 2064.88 1049.16ZM2196.38 461.999 2247.81 492 2196.38 522.001C2193.1 523.914 2188.89 522.806 2186.97 519.526 2185.06 516.247 2186.17 512.037 2189.45 510.124L2230.7 486.061 2230.7 497.938 2189.45 473.876C2186.17 471.963 2185.06 467.753 2186.97 464.473 2188.89 461.193 2193.1 460.086 2196.38 461.999Z"/><text font-family="Calibri,Calibri_MSFontService,sans-serif" font-weight="400" font-size="87" transform="matrix(1 0 0 1 2998.67 810)">Action</text><text font-family="Calibri,Calibri_MSFontService,sans-serif" font-weight="400" font-size="87" transform="matrix(1 0 0 1 1734.56 754)">Reward</text><text font-family="Calibri,Calibri_MSFontService,sans-serif" font-weight="400" font-size="87" transform="matrix(1 0 0 1 1734.56 886)">State</text><path d="M2516 699.625C2596.84 699.625 2662.38 748.594 2662.38 809 2662.38 860.364 2614.54 904.808 2547.4 915.828L2547.4 931.256 2516 902.75 2547.4 868.755 2547.4 884.162C2608.58 872.392 2644.1 829.2 2626.76 787.689 2612.71 754.074 2567.49 730.875 2516 730.875Z" fill="#0092B5" fill-rule="evenodd"/><path d="M2498.5 918.375C2417.94 918.375 2352.63 869.406 2352.63 809 2352.63 757.665 2400.24 713.238 2467.1 702.189L2467.1 686.764 2498.5 715.25 2467.1 749.264 2467.1 733.863C2406.22 745.682 2370.92 788.903 2388.26 830.4 2402.29 863.97 2447.29 887.125 2498.5 887.125Z" fill="#0092B5" fill-rule="evenodd"/><text font-family="Calibri,Calibri_MSFontService,sans-serif" font-weight="400" font-size="89" transform="matrix(1 0 0 1 2399.86 831)">Policy</text></g></svg>